<svg width="2432" height="2432" viewBox="0 0 2432 2432" fill="none" xmlns="http://www.w3.org/2000/svg">
<path fill-rule="evenodd" clip-rule="evenodd" d="M1146.72 0L1216 1216L814.665 66.0495L686.649 119.076L1216 1216L405.148 307.168L307.169 405.148L1216 1216L119.076 686.648L66.0496 814.665L1216 1216L6.52532e-06 1146.72L0 1285.28L1216 1216L66.0494 1617.33L119.076 1745.35L1216 1216L307.168 2026.85L405.148 2124.83L1216 1216L686.649 2312.92L814.665 2365.95L1216 1216L1146.72 2432H1285.28L1216 1216L1617.33 2365.95L1745.35 2312.92L1216 1216L2026.85 2124.83L2124.83 2026.85L1216 1216L2312.92 1745.35L2365.95 1617.33L1216 1216L2432 1285.28V1146.72L1216 1216L2365.95 814.665L2312.92 686.649L1216 1216L2124.83 405.148L2026.85 307.168L1216 1216L1745.35 119.076L1617.33 66.0493L1216 1216L1285.28 1.30506e-05L1146.72 0Z" fill="url(#paint0_radial_16_110)" fill-opacity="0.7"/>
<defs>
<radialGradient id="paint0_radial_16_110" cx="0" cy="0" r="1" gradientUnits="userSpaceOnUse" gradientTransform="translate(1216 1216) rotate(90) scale(1216)">
<stop stop-color="#FF9D00"/>
<stop offset="0.79" stop-color="#CB0523"/>
</radialGradient>
</defs>
</svg>
