<svg width="748" height="747" viewBox="0 0 748 747" fill="none" xmlns="http://www.w3.org/2000/svg">
<circle cx="373.776" cy="372.577" r="309.927" fill="#F9D001"/>
<path fill-rule="evenodd" clip-rule="evenodd" d="M376.776 22.6353C375.739 19.8585 371.812 19.8585 370.775 22.6353L360.504 50.1375C365.17 49.9378 369.861 49.837 374.576 49.837C378.744 49.837 382.893 49.9158 387.023 50.072L376.776 22.6353ZM421.877 53.2699C430.629 54.5519 439.266 56.1842 447.775 58.1522L442.949 29.5272C442.456 26.6042 438.6 25.8609 437.056 28.3913L421.877 53.2699ZM481.605 67.959C489.878 70.8581 497.998 74.0837 505.948 77.6205L506.622 48.8177C506.691 45.8543 503.045 44.3945 501.05 46.5871L481.605 67.959ZM537.451 93.7624C544.971 98.1523 552.298 102.837 559.416 107.8L565.493 79.8098C566.122 76.9131 562.818 74.7896 560.444 76.5649L537.451 93.7624ZM587.419 129.699C593.932 135.392 600.214 141.342 606.25 147.533L617.435 121.383C618.601 118.658 615.758 115.947 613.091 117.241L587.419 129.699ZM629.76 174.457C635.038 181.218 640.053 188.195 644.79 195.371L660.57 172.035C662.231 169.58 659.953 166.381 657.089 167.146L629.76 174.457ZM662.915 226.462C666.779 234.03 670.353 241.771 673.624 249.669L693.34 229.936C695.436 227.839 693.804 224.266 690.847 224.476L662.915 226.462ZM685.571 283.85C687.899 291.952 689.919 300.185 691.618 308.534L714.561 292.992C717.015 291.329 716.089 287.512 713.146 287.159L685.571 283.85ZM696.846 344.499C697.584 352.845 698.006 361.283 698.098 369.799L723.464 358.924C726.188 357.756 726.001 353.832 723.178 352.929L696.846 344.499ZM696.47 406.229C695.621 414.646 694.45 422.968 692.968 431.183L719.728 425.349C722.625 424.718 723.184 420.83 720.582 419.409L696.47 406.229ZM684.421 466.816C681.999 474.856 679.273 482.764 676.257 490.528L703.489 489.868C706.453 489.796 707.737 486.084 705.452 484.196L684.421 466.816ZM661.016 523.956C657.115 531.36 652.936 538.594 648.493 545.645L675.334 550.147C678.257 550.637 680.221 547.236 678.335 544.949L661.016 523.956ZM627.171 575.571C621.944 582.094 616.469 588.409 610.761 594.503L636.279 604.008C639.056 605.043 641.629 602.075 640.209 599.472L627.171 575.571ZM584.174 619.856C577.819 625.266 571.252 630.434 564.487 635.347L587.736 649.505C590.268 651.047 593.355 648.619 592.454 645.795L584.174 619.856ZM533.576 655.22C526.324 659.32 518.897 663.148 511.311 666.691L531.461 684.993C533.655 686.986 537.146 685.186 536.796 682.243L533.576 655.22ZM477.201 680.304C469.3 682.945 461.263 685.289 453.103 687.324L469.486 709.189C471.264 711.562 475.032 710.455 475.245 707.498L477.201 680.304ZM417.141 694.144C408.859 695.233 400.478 696.008 392.011 696.457L404.052 721.22C405.349 723.885 409.259 723.512 410.027 720.649L417.141 694.144ZM355.583 696.371C347.08 695.878 338.665 695.058 330.35 693.921L337.524 720.649C338.293 723.512 342.203 723.885 343.499 721.22L355.583 696.371ZM294.702 686.984C286.44 684.887 278.305 682.471 270.31 679.751L272.306 707.498C272.519 710.455 276.288 711.562 278.065 709.189L294.702 686.984ZM236.786 666.195C229.043 662.545 221.468 658.597 214.077 654.366L210.756 682.243C210.405 685.186 213.896 686.986 216.09 684.993L236.786 666.195ZM183.937 634.816C176.982 629.736 170.238 624.386 163.72 618.78L155.097 645.795C154.196 648.619 157.283 651.047 159.815 649.505L183.937 634.816ZM137.978 594.06C132.072 587.732 126.418 581.166 121.03 574.379L107.342 599.472C105.923 602.075 108.495 605.043 111.272 604.008L137.978 594.06ZM100.507 545.402C95.8835 538.051 91.5475 530.502 87.5149 522.768L69.2166 544.949C67.3303 547.236 69.2942 550.637 72.2175 550.147L100.507 545.402ZM72.9112 490.567C69.7558 482.45 66.9185 474.174 64.4147 465.755L42.0987 484.196C39.8138 486.084 41.0984 489.796 44.0617 489.868L72.9112 490.567ZM56.2501 431.546C54.6885 422.944 53.4669 414.223 52.6 405.399L26.9686 419.409C24.3676 420.83 24.9265 424.718 27.8227 425.349L56.2501 431.546ZM51.0481 370.482C51.1263 361.554 51.5662 352.713 52.3538 343.971L24.3729 352.929C21.5498 353.832 21.3629 357.756 24.0873 358.924L51.0481 370.482ZM57.3423 309.488C59.0938 300.743 61.1979 292.126 63.639 283.651L34.4055 287.159C31.4625 287.512 30.5364 291.329 32.9905 292.992L57.3423 309.488ZM75.061 250.804C78.4422 242.55 82.1547 234.468 86.1818 226.572L56.7039 224.476C53.7472 224.266 52.1155 227.839 54.2106 229.936L75.061 250.804ZM103.573 196.573C108.459 189.099 113.646 181.839 119.117 174.812L90.4621 167.146C87.5985 166.381 85.3202 169.58 86.9806 172.035L103.573 196.573ZM141.791 148.678C147.991 142.257 154.454 136.091 161.163 130.199L134.46 117.241C131.793 115.947 128.95 118.658 130.116 121.383L141.791 148.678ZM188.346 108.775C195.617 103.649 203.109 98.814 210.804 94.2886L187.107 76.5649C184.734 74.7895 181.429 76.9131 182.058 79.8098L188.346 108.775ZM241.619 78.3308C249.687 74.6895 257.931 71.3693 266.335 68.3867L246.501 46.5871C244.506 44.3945 240.86 45.8543 240.929 48.8177L241.619 78.3308ZM299.71 58.5425C308.282 56.5118 316.986 54.822 325.807 53.4884L310.495 28.3913C308.952 25.8609 305.095 26.6042 304.602 29.5272L299.71 58.5425Z" fill="#F9D001"/>
<path fill-rule="evenodd" clip-rule="evenodd" d="M413.497 3.34546C413.38 -0.402901 408.024 -0.932846 407.175 2.72L396.062 50.5391C402.434 50.9568 408.756 51.559 415.021 52.3404L413.497 3.34546ZM456.705 60.3526C462.85 61.9603 468.923 63.7441 474.919 65.6983L482.656 17.5352C483.251 13.8325 478.092 12.2984 476.567 15.7246L456.705 60.3526ZM514.406 81.5307C520.108 84.2675 525.717 87.1665 531.228 90.2217L547.881 44.5571C549.166 41.0339 544.39 38.5511 542.244 41.6267L514.406 81.5307ZM567.058 113.295C572.122 117.049 577.072 120.947 581.902 124.983L606.813 83.4345C608.741 80.2181 604.522 76.8763 601.833 79.4903L567.058 113.295ZM612.801 154.451C617.051 159.073 621.167 163.818 625.145 168.682L657.322 132.762C659.824 129.969 656.313 125.889 653.178 127.947L612.801 154.451ZM650.002 203.53C653.287 208.845 656.423 214.263 659.403 219.777L697.583 190.758C700.569 188.488 697.894 183.818 694.426 185.245L650.002 203.53ZM677.248 258.811C679.45 264.627 681.49 270.523 683.361 276.493L726.141 255.324C729.503 253.661 727.759 248.568 724.084 249.314L677.248 258.811ZM693.448 318.298C694.495 324.404 695.371 330.568 696.071 336.786L741.964 324.129C745.579 323.132 744.831 317.801 741.081 317.837L693.448 318.298ZM698.055 379.798C697.934 386.049 697.635 392.257 697.163 398.416L744.479 394.684C748.218 394.39 748.492 389.014 744.803 388.34L698.055 379.798ZM691.017 441.111C689.72 447.196 688.253 453.219 686.62 459.172L733.596 464.441C737.323 464.859 738.61 459.632 735.115 458.272L691.017 441.111ZM672.413 499.973C669.984 505.68 667.396 511.303 664.654 516.837L709.709 530.877C713.289 531.993 715.542 527.104 712.367 525.108L672.413 499.973ZM642.914 554.195C639.448 559.329 635.838 564.358 632.091 569.276L673.679 591.592C676.984 593.366 680.121 588.992 677.382 586.43L642.914 554.195ZM603.672 601.838C599.302 606.22 594.807 610.478 590.193 614.605L626.811 644.392C629.72 646.758 633.628 643.057 631.423 640.023L603.672 601.838ZM556.134 641.214C551.021 644.687 545.804 648.017 540.487 651.199L570.797 687.367C573.206 690.241 577.744 687.346 576.153 683.95L556.134 641.214ZM501.997 670.862C496.322 673.295 490.564 675.571 484.728 677.684L507.662 718.965C509.483 722.243 514.487 720.259 513.568 716.624L501.997 670.862ZM443.222 689.622C437.187 690.926 431.089 692.061 424.934 693.023L439.688 738.043C440.856 741.607 446.145 740.606 445.931 736.862L443.222 689.622ZM381.993 696.836C379.527 696.891 377.055 696.919 374.577 696.919C370.816 696.919 367.07 696.855 363.341 696.728L369.332 743.913C369.805 747.633 375.187 747.651 375.685 743.934L381.993 696.836ZM320.514 692.422C314.345 691.385 308.235 690.172 302.19 688.791L299.137 736.361C298.897 740.104 304.179 741.14 305.371 737.585L320.514 692.422ZM261.021 676.43C255.16 674.233 249.38 671.871 243.686 669.349L231.639 715.662C230.695 719.291 235.685 721.309 237.529 718.043L261.021 676.43ZM205.714 649.411C200.367 646.133 195.122 642.703 189.986 639.129L169.279 682.562C167.665 685.947 172.183 688.873 174.611 686.015L205.714 649.411ZM156.563 612.44C151.919 608.202 147.399 603.83 143.008 599.332L114.309 638.259C112.084 641.278 115.967 645.005 118.892 642.659L156.563 612.44ZM115.271 566.904C111.501 561.86 107.875 556.703 104.398 551.438L68.7173 584.353C65.9609 586.896 69.0682 591.291 72.3847 589.541L115.271 566.904ZM83.3162 514.424C80.5653 508.754 77.975 502.991 75.5514 497.142L34.1512 522.794C30.9633 524.769 33.1827 529.673 36.7706 528.581L83.3162 514.424ZM61.9114 456.871C60.2876 450.775 58.8374 444.608 57.5664 438.376L11.86 455.805C8.35593 457.141 9.60711 462.376 13.3367 461.984L61.9114 456.871ZM51.8383 396.348C51.3964 390.048 51.1349 383.698 51.0589 377.303L2.64938 385.808C-1.04423 386.457 -0.806454 391.834 2.93001 392.154L51.8383 396.348ZM53.2848 335.027C54.035 328.675 54.9692 322.379 56.082 316.144L6.85222 315.332C3.10255 315.271 2.31834 320.596 5.92665 321.618L53.2848 335.027ZM66.2381 275.08C68.1774 268.992 70.292 262.982 72.5761 257.056L24.3166 246.926C20.6464 246.156 18.8686 251.236 22.2183 252.923L66.2381 275.08ZM90.332 218.706C93.391 213.096 96.6112 207.587 99.9864 202.185L54.4114 183.061C50.9534 181.61 48.2461 186.263 51.2162 188.552L90.332 218.706ZM124.637 167.915C128.697 162.982 132.9 158.171 137.241 153.489L96.0489 126.046C92.9279 123.967 89.3891 128.023 91.8722 130.833L124.637 167.915ZM167.873 124.465C172.78 120.386 177.809 116.449 182.955 112.66L147.724 77.941C145.053 75.3087 140.811 78.6216 142.717 81.8511L167.873 124.465ZM218.518 89.8939C224.091 86.8194 229.764 83.9045 235.532 81.1554L207.569 40.4849C205.445 37.3946 200.652 39.8448 201.913 43.3767L218.518 89.8939ZM274.805 65.5128C280.842 63.5578 286.957 61.7754 293.144 60.1715L273.422 15.0315C271.92 11.595 266.751 13.0938 267.32 16.8005L274.805 65.5128ZM334.709 52.269C340.989 51.4973 347.325 50.9055 353.711 50.499L342.901 2.50072C342.077 -1.15783 336.717 -0.664465 336.575 3.08301L334.709 52.269Z" fill="#F9D001"/>
</svg>
