<svg width="145" height="6" viewBox="0 0 145 6" fill="none" xmlns="http://www.w3.org/2000/svg">
<path d="M2 2.29193C4.42483 2.35589 6.85941 2.62621 9.28584 2.73181C16.1382 3.03003 23.0374 3.43761 29.901 3.58713C38.9386 3.78401 47.848 3.21957 56.7702 2.48743C60.3441 2.19416 63.8774 1.83152 67.4883 1.71764C70.9466 1.60859 74.4069 1.62472 77.8696 1.63211C85.4589 1.6483 93.0449 1.85205 100.633 1.85205C105.216 1.85205 109.8 1.85205 114.383 1.85205C116.136 1.85205 117.909 1.7957 119.647 1.93758C121.474 2.08666 123.26 2.35512 125.101 2.48743C128.711 2.74674 132.413 2.92909 136.051 2.81734C137.61 2.76944 139.171 2.53693 140.726 2.51187C141.493 2.4995 142.214 2.4019 143 2.4019" stroke="#F9D001" stroke-width="3" stroke-linecap="round"/>
</svg>
