<svg width="145" height="6" viewBox="0 0 145 6" fill="none" xmlns="http://www.w3.org/2000/svg">
<path d="M2 2.29205C4.42483 2.35601 6.85941 2.62633 9.28584 2.73193C16.1382 3.03015 23.0374 3.43773 29.901 3.58725C38.9386 3.78414 47.848 3.21969 56.7702 2.48755C60.3441 2.19429 63.8774 1.83164 67.4883 1.71777C70.9466 1.60871 74.4069 1.62485 77.8696 1.63223C85.4589 1.64842 93.0449 1.85217 100.633 1.85217C105.216 1.85217 109.8 1.85217 114.383 1.85217C116.136 1.85217 117.909 1.79582 119.647 1.93771C121.474 2.08679 123.26 2.35524 125.101 2.48755C128.711 2.74686 132.413 2.92922 136.051 2.81746C137.61 2.76957 139.171 2.53705 140.726 2.51199C141.493 2.49963 142.214 2.40202 143 2.40202" stroke="#F9D001" stroke-width="3" stroke-linecap="round"/>
</svg>
